<svg id="图层_1" data-name="图层 1" xmlns="http://www.w3.org/2000/svg" viewBox="0 0 87.34 111.62"><defs><style>.cls-1{fill:none;}</style></defs><title>0</title><path class="cls-1" d="M74.53,53.67C73,70.56,69.72,86.38,60,100.27,50,114.73,35.82,120.8,18.5,118.62,2.93,116.66-7.2,107-10.7,90.57c-4.46-20.91-1.93-41.15,8.43-60C7.4,13,24.16,4.95,43.86,8.11c12.18,2,21,8.92,25,20.46C71.66,36.62,72.7,45.28,74.53,53.67Zm-17.63-1c-1.69-9.09-2.35-17.31-4.82-24.93-3.89-12-16.7-16.28-27.08-9.12A31.09,31.09,0,0,0,14.26,31.25,121,121,0,0,0,6.57,57.9C4.37,71,3.33,84.39,7.76,97.41c5,14.8,21.13,18.83,32.11,7.61,3.93-4,7.47-9.34,8.94-14.68C52.27,77.76,54.38,64.82,56.91,52.67Z" transform="translate(12.81 -7.44)"/></svg>