<svg id="图层_1" data-name="图层 1" xmlns="http://www.w3.org/2000/svg" viewBox="0 0 41.32 107.09"><defs><style>.cls-1{fill:none;}</style></defs><title>1</title><path class="cls-1" d="M50.07,10C48.2,27.8,46.4,45,44.56,62.2c-1.45,13.56-3,27.11-4.3,40.69a8.26,8.26,0,0,0,2.05,5.6c2.3,2.54,5.21,4.54,7.86,6.76l-1.08,1.4H10.36c2-1.78,3.41-3.49,5.19-4.44,6.77-3.6,7.94-9.65,8.56-16.59,1.86-20.71,4.23-41.37,6.4-62.05.17-1.64.33-3.28.43-4.36-4.74.65-9.36,1.8-14,1.77-4.26,0-7.88-2.35-8.12-7.16-.1-2.06,1-4.41,2.22-6.19.5-.73,3.51-.89,4-.26,1.22,1.61,1.67,3.82,2.84,6.86,3.82,1.52,8.11,0,11.9-3.48,1.33-1.22,2.91-2.58,3.46-4.19C36.25,7.93,43,9.53,50.07,10Z" transform="translate(-8.86 -9.57)"/></svg>