<svg id="图层_1" data-name="图层 1" xmlns="http://www.w3.org/2000/svg" viewBox="0 0 83.77 109.43"><defs><style>.cls-1{fill:none;}</style></defs><title>2</title><path class="cls-1" d="M2,104c17,0,32.94.63,48.8-.38,4.85-.31,9.41-5.15,14-7.86l-2.23,21.84H-13.59a46.9,46.9,0,0,1,19.7-33.4C14.16,78.36,23,73.52,31.26,68A92.48,92.48,0,0,0,44,58.38c8.2-7.79,11.15-17.56,9-28.7-1.26-6.65-5.24-11-11.85-12.77a26.86,26.86,0,0,0-18.07,1.3C14.87,21.73,10.58,29.53,11.77,38.4c.94,7,6.37,10.87,13.23,9.15,2.86-.72,5.54-2.18,9-3.58a27,27,0,0,1-1.14,3.79c-4.21,8.7-13.26,12.86-23,10.63C.55,56.25-5,49.14-4.84,39.11c.26-12.79,6.42-22,18.2-26.79C27,6.73,41.13,6.95,54.81,12.19c13.34,5.11,18.37,18.68,13.61,34.31C65.53,56,59.07,62.59,51,67.6s-16.67,9.07-24.7,14.1A138.81,138.81,0,0,0,9.15,94.47C6.29,96.95,4.48,100.62,2,104Z" transform="translate(13.59 -8.19)"/></svg>