<svg id="图层_1" data-name="图层 1" xmlns="http://www.w3.org/2000/svg" viewBox="0 0 77.11 112.14"><defs><style>.cls-1{fill:none;}</style></defs><title>3</title><path class="cls-1" d="M46.12,58.27c.37.33.47.49.59.52C56.81,61.57,64.94,66.39,66.3,78c1.5,12.85-1.9,24.13-12.82,31.6C39.72,119,24.3,120.67,8.62,115.4c-11.74-3.95-16.25-14-18.31-25.48L8,82c-.22,1.69-.36,3.19-.61,4.68-1.95,11.39,1.68,19.54,10,22.41,10.46,3.61,22.56-1,27.48-10.54a33,33,0,0,0,3-21.39C46.07,67.44,37.51,61.86,26,62.51c-2.13.12-4.26.37-6.49.57,1.64-7.79,1.64-7.79,9.3-8.21,12.18-.66,23.5-13,23.08-25.28a19.58,19.58,0,0,0-.73-4.42c-2.06-7.56-9.2-11.58-19.55-11.06-10.93.55-18.11,5.43-19.38,13.18-1.44,8.77,3,12.79,12.18,11C20.84,44.5,15.11,46.82,8,45c-5.79-1.5-9-6-9.11-12.7C-1.28,24,2.52,17.66,9.32,13.54,24.58,4.3,40.59,4.05,56.57,11.46,64,14.9,67.5,21.5,67.42,29.73c-.1,10.73-4,19.46-13.66,25C51.38,56.1,48.76,57.06,46.12,58.27Z" transform="translate(9.69 -6.23)"/></svg>