<svg id="图层_1" data-name="图层 1" xmlns="http://www.w3.org/2000/svg" viewBox="0 0 86.42 106.78"><defs><style>.cls-1{fill:none;}</style></defs><title>4</title><path class="cls-1" d="M61.28,87.89a6.66,6.66,0,0,0-1.34-.31c-8.16-1.2-7.6-1-9.16,7.17-1.5,7.81.28,13.52,6.6,18.07A21.79,21.79,0,0,1,60,115.75H20.39c4.41-4,9.8-7.06,12.12-11.63s1.56-10.67,2.23-16.82H-13.74C5.25,63.39,19.71,38.46,25.16,9H43.45C39,38.75,20.64,59.53-.36,80.22h23.2c12.89,0,12.86,0,14.07-13,.62-6.63,1.3-13.26,2.16-19.86a5.84,5.84,0,0,1,2.09-3.55C46.33,40,51.64,36.36,57.45,32.27l-4.9,47.49c4.42.44,8.41.55,12.27,1.29,4.21.81,7.81,3.3,7.86,7.81,0,2.71-1.63,5.91-3.54,8-.93,1-5.24.63-6.12-.54C61.66,94.43,61.89,91.39,61.28,87.89Z" transform="translate(13.74 -8.97)"/></svg>