<svg id="图层_1" data-name="图层 1" xmlns="http://www.w3.org/2000/svg" viewBox="0 0 83.68 122.42"><defs><style>.cls-1{fill:none;}</style></defs><title>5</title><path class="cls-1" d="M-12.8,97.35l18.93-9c-.19,1.81-.29,3.52-.56,5.2-1.75,10.86.75,17.71,7.78,21.25,8.74,4.41,20.82,2.72,27.43-4,7.24-7.34,9-16.84,10-26.54a42.07,42.07,0,0,0,0-9C49,60.21,35.76,52.49,22,59.44c-6.07,3.06-10.78,8.81-16.11,13.34l.89,1.09a2.4,2.4,0,0,1-.95,0C-3,69.62-3.06,69.62-2.1,60-.75,46.62.78,33.22,2,19.79c.3-3.22,1.51-4.16,4.65-4.14,15,.14,30,.1,45,0a36.77,36.77,0,0,0,9.4-.9c2-.55,3.63-2.46,5.81-4A13.54,13.54,0,0,0,65,9.56c-1.91-.5-4.11-.59-5.6-1.66-.53-.38.23-4.25,1.12-4.58,2.05-.77,5.21-1.25,6.71-.17,1.85,1.34,3.17,4.28,3.51,6.7a18.38,18.38,0,0,1-13.67,20,43.13,43.13,0,0,1-9.89,1c-12.12.11-24.24,0-36.72,0L7.37,59.86c12.5-11,26.11-13,40.78-8.82C60,54.39,67.43,63.41,67.92,75.75a73.93,73.93,0,0,1-1.41,19.31c-4.09,17.81-17.91,28.73-37.23,29.75a77.82,77.82,0,0,1-18.37-1.1C-3.43,121-10,110.83-12.8,97.35Z" transform="translate(12.8 -2.51)"/></svg>