<svg id="图层_1" data-name="图层 1" xmlns="http://www.w3.org/2000/svg" viewBox="0 0 80.63 111.8"><defs><style>.cls-1{fill:none;}</style></defs><title>6</title><path class="cls-1" d="M71.64,26.83l-17,8.86c-.15-2.22-.24-4.17-.41-6.1C53.3,19,46.18,13.51,35.68,15.32c-7.58,1.31-12.93,5.76-16.93,12.1-5.64,8.95-8,19-9.3,29.27-1.71,13.58-3,27.19,1.38,40.6,2.26,7,6.29,12.27,13.86,13.55,8,1.35,15.16-.92,19.94-7.61,9.08-12.71,10.86-27,7.07-41.89A13.23,13.23,0,0,0,40,51.1c-7.13-.88-13.89.25-18.17,6.71-2.16,3.25-3.09,7.29-4.89,10.82-.78,1.53-2.35,2.66-3.57,4-.8-1.64-2.24-3.25-2.29-4.91-.27-9.71,7.4-19.21,18-22.74C48.53,38.43,65.91,49,68.4,69.36c2.41,19.71-7.29,45.07-34.68,49.31C16.57,121.33,1.71,114-4,97.77-13.49,70.55-9.55,44.73,8.5,22,19.14,8.62,34.14,5.4,50.49,8.48,60.82,10.43,67.32,17.26,71.64,26.83Z" transform="translate(8.99 -7.4)"/></svg>