<svg id="图层_1" data-name="图层 1" xmlns="http://www.w3.org/2000/svg" viewBox="0 0 78.99 106.69"><defs><style>.cls-1{fill:none;}</style></defs><title>7</title><path class="cls-1" d="M27.11,116.79H8a92.51,92.51,0,0,1,8.35-35.1c6-13.28,15.51-23.94,25.08-34.62,4.54-5.07,8.76-10.44,13-15.8,1.29-1.64,2.05-3.68,3.5-6.36H10.69C10,28.6,9.55,32,8.7,35.37,6.81,42.83.12,46.14-6.71,43c-1.42-.65-3.34-2-3.51-3.18a12.92,12.92,0,0,1,1-6.83c.36-.8,3.92-1.3,4.26-.78,1.16,1.77,1.54,4.05,2.56,7.19C-1.24,37.65.49,36,1,34.12a98.33,98.33,0,0,0,1.87-11.8c.51-3.94.88-7.9,1.36-12.22H68.66c-.74,12-5.4,22.39-11.36,32.29C50.78,53.22,43.87,63.83,37.86,74.93A87.39,87.39,0,0,0,27.8,111.19C27.68,113,27.36,114.8,27.11,116.79Z" transform="translate(10.34 -10.1)"/></svg>