<svg id="图层_1" data-name="图层 1" xmlns="http://www.w3.org/2000/svg" viewBox="0 0 85.51 138.07"><defs><style>.cls-1{fill:none;}</style></defs><title>8</title><path class="cls-1" d="M50.43,64.58c4.06,3,9.16,5.88,13.27,9.84A31.44,31.44,0,0,1,61,121.88c-12.2,9.45-26.42,11.24-41.22,9.67a63.34,63.34,0,0,1-14-3.21c-24.29-8.47-20.86-37.12-8.09-47,6-4.64,12.77-8.23,19.19-12.3-2.23-1.39-5-2.91-7.53-4.71-11.9-8.43-13.4-22.86-2.9-33,4.35-4.21,9.8-7.39,15-10.54,5.84-3.51,12.1-6.31,18-9.72A70.37,70.37,0,0,0,47,5.41c-.79-3.31-2.3-6-1.63-7.95C45.93-4.24,49-6,50.95-6c1.6,0,4.69,2.81,4.51,4C54.91,1.71,54,6,51.64,8.72c-3.05,3.54-7.51,5.93-11.55,8.53-5.31,3.42-11.09,6.16-16.16,9.9C12,36,12.69,46.94,25.56,54.4c3.86,2.24,8.14,3.76,12.23,5.59a5.65,5.65,0,0,0,1.88.63c7.85.43,22-12.22,22.45-20.08.38-5.94-1.64-9.8-6-11.46-5.22-2-11.93-.48-15.06,3.5-1.61,2-3.11,5.53-6.06,3.09s-.82-5.5,1.29-7.77c6.61-7.13,21.27-8,28.49-1.83,6.74,5.8,7.58,18.08.74,25.83C61.14,56.92,55.25,60.62,50.43,64.58ZM28.75,124.26V124c1.33,0,2.66.07,4,0,12.46-.79,21.44-7.48,23.77-17.68,2.39-10.49-2.18-18.91-14-25.21-4.83-2.57-9.86-4.77-14.88-7-1.06-.46-2.85-.72-3.61-.15C18.1,78.39,11.07,82.08,6.79,87.8-4.37,102.68,3.09,120,21.32,123.53,23.75,124,26.27,124,28.75,124.26Z" transform="translate(12.25 6.01)"/></svg>