<svg id="图层_1" data-name="图层 1" xmlns="http://www.w3.org/2000/svg" viewBox="0 0 79.46 113.02"><defs><style>.cls-1{fill:none;}</style></defs><title>9</title><path class="cls-1" d="M-31.17,115.15c1.64-1,3.2-2.85,4.92-3C0,109.84,16.28,97,24.27,71.77c4.4-13.88,5.62-28.07,2.65-42.39-1.67-8-5.39-14.85-14.36-16.73C3.33,10.72-4.35,13.84-9.91,21.2c-7.56,10-9.75,21.41-6.63,33.57,2.2,8.55,8,13.07,16,13.24C9.56,68.24,17.12,63.56,20,55.3c.43-1.26.5-2.79,1.3-3.73.93-1.11,2.46-1.71,3.73-2.53.52,1.4,1.65,2.9,1.45,4.19-1.45,9.22-6.56,16.07-15,19.88-12.46,5.66-25,5.16-35.78-3.52-11.15-9-11.43-21.77-8.27-34.41C-25.21,5.73,6.21-.18,23.57,7.29c12.7,5.47,18.85,16.21,20.61,29.25,3.35,24.94-1.65,47.6-21.33,64.91-15.12,13.3-33.46,16.77-52.9,15.76Z" transform="translate(34.32 -4.36)"/></svg>