<svg id="图层_1" data-name="图层 1" xmlns="http://www.w3.org/2000/svg" viewBox="0 0 112.08 106.85"><defs><style>.cls-1{fill:none;}</style></defs><title>A</title><path class="cls-1" d="M-50,112c9.57-5,16.81-12.52,22.57-21.35,4.52-6.93,8.17-14.44,12.55-22.31L-25.3,62.89-19,51.1l8.51,5.81C-6.68,48.47-3,40.22.69,32c.81-1.82,1.55-3.68,2.4-5.49C6.26,19.75,11,13,1,6.62l1.52-.47H37.13c-.87,1.17-1.39,2.4-2.32,3.06-5.22,3.71-5.75,8.17-3.9,14.19,3.27,10.63,5.6,21.55,8.44,32.78L50,51.56,53.14,63.3l-11,3.88c3,11.7,5.7,23.16,9.11,34.4.81,2.67,4.09,4.6,6.28,6.83,1.26,1.28,2.61,2.46,4.5,4.24H20.85c3.61-3,6.63-5.19,9.34-7.76,1-1,2.06-2.84,1.79-4-1.72-7.59-3.8-15.1-6.11-23.92L9.17,95.11-8.06,72.37c-11,14.39-11.78,28.28-2.26,40.63H-50ZM12.39,24.31C6.54,37.34,1.28,49-3.84,60.65a3.69,3.69,0,0,0,.46,3.11C1,69.47,5.51,75.07,8.91,79.35c4-3.39,8.45-6.92,12.59-10.77a5.23,5.23,0,0,0,1.16-4.3C19.48,51.38,16.08,38.53,12.39,24.31Z" transform="translate(50 -6.15)"/></svg>