<svg id="图层_1" data-name="图层 1" xmlns="http://www.w3.org/2000/svg" viewBox="0 0 95.14 110.11"><defs><style>.cls-1{fill:none;}</style></defs><title>B</title><path class="cls-1" d="M-42.09,114.11c2.52-2.06,4.89-4.34,7.59-6.14,3.48-2.32,4.95-5.35,5.29-9.48,1-11.72,2.27-23.42,3.51-35.82L-39.41,64c1.68-3.65,2.35-7.74,4.74-9.51,2.14-1.59,6.18-.62,10.1-.81.89-9.26,1.88-18.63,2.56-28,.07-1-1.63-2.2-2.72-3-1.44-1.11-3.08-2-5.47-3.42,3.44-2,6.33-4.07,9.48-5.55,17.12-8,34.92-10.67,53.44-6C45.34,10.95,52.39,18.64,53,29.35,53.71,42,47.75,51.15,35.53,56.08l-4,1.6c.31.54.42,1,.61,1,10.07,2.51,18.15,7.52,19.61,18.64,1.62,12.35-1.57,23.43-12.65,30.47-4.52,2.87-10,5.57-15.17,5.84C2,114.78-19.85,115-41.73,115.51Zm29-7.65c7.7,0,14.67.26,21.62-.11A32.78,32.78,0,0,0,18.7,104c9.58-3.79,14.57-13.53,13.15-25C30.8,70.52,25.33,65.43,14.61,64a177.85,177.85,0,0,0-19.89-1.2c-1.15,0-3.27,1.41-3.39,2.35C-10.27,78.8-11.62,92.53-13,106.46Zm5.6-51.78c5.74,0,10.92.48,16-.13a52.52,52.52,0,0,0,14.88-3.67C32.15,47,36.16,36.69,33.87,26.2c-1.67-7.62-7.68-12.11-17.58-12.59a41.83,41.83,0,0,0-10.88,1c-8.64,1.91-8.77,2.09-9.8,10.84C-5.53,35-6.41,44.57-7.45,54.68Z" transform="translate(42.09 -5.4)"/></svg>