<svg id="图层_1" data-name="图层 1" xmlns="http://www.w3.org/2000/svg" viewBox="0 0 92.87 111.73"><defs><style>.cls-1{fill:none;}</style></defs><title>C</title><path class="cls-1" d="M53.06,8.81,34,41.34c0-3.52.13-5.78,0-8C32.81,15.54,18.2,7.38,2.33,15.64-4.3,19.09-8.83,24.6-12,31.19a86.09,86.09,0,0,0-7,55c3,15,11.09,22,24.15,21.83C20,107.8,31,99,33.8,85c.36-1.79.28-3.87,1.2-5.3s2.93-2.57,4.45-3.81c.81,1.63,2.36,3.28,2.3,4.87-.37,10.69-4.34,19.87-13,26.38-13.86,10.38-29.29,11.63-45,5.57C-31,107-37.41,94.5-39.11,79.52-41.47,58.8-38.1,39.24-25,22.38-12.26,6,9.1.37,28.39,7.91,36.2,11,43.93,14.34,53.06,8.81Z" transform="translate(39.81 -4.61)"/></svg>