<svg id="图层_1" data-name="图层 1" xmlns="http://www.w3.org/2000/svg" viewBox="0 0 100.47 107.3"><defs><style>.cls-1{fill:none;}</style></defs><title>D</title><path class="cls-1" d="M-32.73,6.16c18.21,0,35.57-1,52.77.25C41.36,8,52.77,19.65,55.42,40.94c1.9,15.27,0,30.31-6.87,44.28-8.85,18.1-24.4,26.47-43.78,27.45-15.92.81-31.92.16-49.13.16,3.4-2.87,5.95-5.31,8.79-7.32,3.1-2.19,4.33-4.86,4.7-8.7,2.25-23.52,4.57-47,7.43-70.48.79-6.48.46-11.7-5.16-15.75C-30,9.57-31,8-32.73,6.16Zm27.57,8-9.53,90.8H-3c16.48,0,27.85-7.66,34.22-22.76,6.12-14.51,7.3-29.76,5.3-45.11-1.84-14.09-9.9-21.67-23-22.84C7.57,13.67,1.55,14.11-5.16,14.11Z" transform="translate(44.36 -5.78)"/></svg>