<svg id="图层_1" data-name="图层 1" xmlns="http://www.w3.org/2000/svg" viewBox="0 0 98.5 106.4"><defs><style>.cls-1{fill:none;}</style></defs><title>E</title><path class="cls-1" d="M-26.42,58.3l-16.21,7c1.69-9.24,8.1-13.19,17-14.53,1.15-10.87,2.38-21.61,3.3-32.37.11-1.3-1.2-3-2.31-4.07-2.53-2.37-5.35-4.44-8.05-6.63l1.1-1.53H55L38,30.74c-1-2-1.87-3.8-2.66-5.65C32.18,17.7,26.58,14,18.58,14c-7.62,0-15.24,0-23.19,0L-8.38,51c7.22,0,13.85.15,20.46-.12,1.35-.05,2.85-1.45,3.91-2.58,3.13-3.34,6.08-6.86,10-9.83L22.18,73.64c-3-4.56-5-8.06-7.54-11.06a9.1,9.1,0,0,0-5.51-3.08,101.3,101.3,0,0,0-15,0C-7.19,59.55-9.47,61-9.59,62c-1.68,14-3,28.12-4.54,42.65,19.11.46,38.47,3,48.47-19.05L46.6,112.54H-43.55c3.43-2.92,6.69-5.35,9.51-8.22a10.93,10.93,0,0,0,3.19-5.7C-29.24,85.8-28,72.92-26.42,58.3Z" transform="translate(43.55 -6.15)"/></svg>