<svg id="图层_1" data-name="图层 1" xmlns="http://www.w3.org/2000/svg" viewBox="0 0 98.94 106.55"><defs><style>.cls-1{fill:none;}</style></defs><title>F</title><path class="cls-1" d="M-1.83,112.74H-43c2.75-2.29,4.56-4.25,6.76-5.55,5.3-3.12,6.91-7.79,7.32-13.65.73-10.42,2.05-20.8,3.32-33l-15.82,6.69c.86-7.87,5.15-11.82,16.52-14.35.92-8.21,1.38-16.69,2.94-25,1.5-8,.14-14.27-6.79-18.95a18,18,0,0,1-2.46-2.73H55.89l-17,24.56c-1-2.25-2-4.29-2.95-6.32C32.76,17.58,27.34,14.06,19.78,14S4.52,14-3.58,14L-7.74,53c7.13,0,14.05.12,21-.12,1.18,0,2.48-1.45,3.44-2.49,3.11-3.37,6.09-6.85,10-9.86l-3.6,35c-1.6-2.29-2.4-3.51-3.27-4.66C17.4,67.8,15.44,62.68,12.49,62c-6.18-1.4-12.89-.53-19.38-.32-.71,0-1.84,1.76-2,2.8C-10.22,76.23-11.51,88-12.59,99.74c-.12,1.36.87,3.12,1.86,4.22C-8.19,106.77-5.36,109.3-1.83,112.74Z" transform="translate(43.05 -6.19)"/></svg>