<svg id="图层_1" data-name="图层 1" xmlns="http://www.w3.org/2000/svg" viewBox="0 0 98.59 109.73"><defs><style>.cls-1{fill:none;}</style></defs><title>G</title><path class="cls-1" d="M18.88,107.59l4.61-44.06c-3.6,0-6.69.08-9.77,0a74.12,74.12,0,0,1-10.95-.65c-7-1.28-10.57-7.48-7.55-13.85,1.16-2.44,4.21-4.41,6.85-5.52C3.2,43,6.75,45,7,46.26c.47,2.5-.6,5.3-1.14,8.58H52.07l.45,1.2C49.32,59.06,46,62,43,65.14c-1.28,1.34-2.63,3.15-2.86,4.89C38.9,79.6,38.31,89.26,36.88,98.8c-.75,5,.41,8.68,4.15,11.88a47.41,47.41,0,0,1,4.3,4.93,19.78,19.78,0,0,1-2.38.37c-15.49,0-31,.19-46.47-.07-22.65-.37-36-12.33-38.68-34.88-2.16-18.51.79-36.24,10.74-52.29C-20.56,11.16-.22,2.95,20,7.6c5,1.15,10,2.49,15,3.75,6.73,1.69,13.41,2.51,20.69-1.8L36.54,40.07c-.32-1.5-.59-2.64-.81-3.79-1.91-10-6.4-18.05-17-20.67-10.9-2.7-20.46,0-28,8.63-6.21,7.07-9.56,15.59-11.57,24.59-2.78,12.42-4.12,25-1.29,37.63,2.8,12.5,10.12,19.57,22.77,21C6.52,108.15,12.54,107.59,18.88,107.59Z" transform="translate(42.88 -6.31)"/></svg>