<svg id="图层_1" data-name="图层 1" xmlns="http://www.w3.org/2000/svg" viewBox="0 0 111.34 106.52"><defs><style>.cls-1{fill:none;}</style></defs><title>H</title><path class="cls-1" d="M-49.21,112.53a20.45,20.45,0,0,1,2.8-2.5c7.82-4.36,11.11-10.91,11.26-19.92s1.63-17.9,2.5-26.85a11.19,11.19,0,0,0-.6-2.12L-47.13,66c.16-6.12,4.37-11.15,12-12.89,3-.69,4-1.87,4.22-4.89.61-8.13,1.4-16.27,2.59-24.33.72-4.84.23-8.81-4-11.8-2-1.42-3.9-3.09-5.84-4.64l.81-1.28H2c-3.62,3.07-6.79,5.6-9.75,8.35-1.26,1.18-2.82,2.74-3,4.27C-12,29.87-13,41-14.18,52.61c14.31,2.28,28.32,1.91,43,.34C29.94,41.27,31.24,29.73,32,18.16c.11-1.64-2-3.64-3.38-5.13-1.95-2-4.24-3.75-6.38-5.61l.65-1.19h39.2c-3.55,3-6.85,5.41-9.62,8.32a11.81,11.81,0,0,0-3.28,6.23c-2.81,25-5.27,50-8.09,75-.52,4.57.2,8.05,4,10.86a83,83,0,0,1,6.51,6.06H10.74c3.79-3.15,7-5.63,10-8.36,1.27-1.16,2.79-2.74,3-4.28,1.44-12.2,2.58-24.43,3.82-36.66H-15.35c-.82,7.34-1.69,15.19-2.57,23a9.86,9.86,0,0,1-.07,1c-2.14,9.86-2.2,19,9.54,24.2l-1.25.89Z" transform="translate(49.21 -6.18)"/></svg>