<svg id="图层_1" data-name="图层 1" xmlns="http://www.w3.org/2000/svg" viewBox="0 0 51.79 106.75"><defs><style>.cls-1{fill:none;}</style></defs><title>I</title><path class="cls-1" d="M20.28,112.86H-19.52c3.12-2.6,5.26-4.75,7.74-6.37,4.1-2.68,5.6-6.16,6-11.12,2-22.7,4.25-45.41,7.19-68,1-7.5.14-13.28-6.1-17.81A13.15,13.15,0,0,1-6.7,7.39a5.17,5.17,0,0,1-.47-1.27H32.28a24.68,24.68,0,0,1-3.34,3C21.09,13.55,18.69,20.42,18,29.21c-1.76,22.22-4.38,44.38-6.89,66.53-.51,4.54.12,8.08,4,10.84a77.58,77.58,0,0,1,6,5.17Z" transform="translate(19.52 -6.12)"/></svg>