<svg id="图层_1" data-name="图层 1" xmlns="http://www.w3.org/2000/svg" viewBox="0 0 84.96 109.1"><defs><style>.cls-1{fill:none;}</style></defs><title>J</title><path class="cls-1" d="M9.58,5H48.84C46.07,7.4,44.3,9.34,42.16,10.7c-4.74,3-6.59,7.16-7.06,12.75-1.55,18.41-3.7,36.77-5.29,55.18-.26,3.06,1.24,6.25,1.74,9.41a9.94,9.94,0,0,1,0,4.62A28.9,28.9,0,0,1,15,110.35a47.6,47.6,0,0,1-24.46,3.41c-12.73-1.49-20.41-8.9-23.42-21.8-.9-3.86-2.14-7.64-3.26-11.56l21.23-12.81c-.89,4.28-2.45,8.62-2.54,13a62.57,62.57,0,0,0,1.66,16.66A11.07,11.07,0,0,0-4.9,106c5.88.21,10.72-2.12,13-7.53a55.85,55.85,0,0,0,3.78-14.85C14.19,62.95,16,42.21,18.41,21.54c.47-4.06.11-7.1-3.21-9.61-2.26-1.71-4.39-3.61-6.57-5.42Z" transform="translate(36.12 -5.01)"/></svg>