<svg id="图层_1" data-name="图层 1" xmlns="http://www.w3.org/2000/svg" viewBox="0 0 108.33 107.04"><defs><style>.cls-1{fill:none;}</style></defs><title>K</title><path class="cls-1" d="M52.77,112.77H11.4c2.59-3.06,4.93-5.56,6.92-8.31.85-1.18,1.71-3.17,1.29-4.31C14.42,86.18,9,72.32,3.34,57.69-3.13,64.66-9.13,71.08-15,77.58a6,6,0,0,0-1,2.72c-.21,1-.18,2-.32,3-1.51,10.76-5.11,22.07,7.7,29.38H-48.18c3.66-3.05,7-5.42,9.75-8.3a11.68,11.68,0,0,0,3.25-6.21c2.78-24.66,5.21-49.35,8-74,.56-5,.15-9.15-4.21-12.25C-33.29,10.53-35.1,9-36.95,7.61l.86-1.38H3.13c-3.61,3.06-6.79,5.58-9.75,8.34-1.26,1.18-2.8,2.76-3,4.3-1.76,15.19-3.26,30.4-5,46.86,1.92-1.74,3-2.6,4-3.6q16.41-17.5,32.79-35c.34-.37.68-.73,1-1.11C30.22,17.87,29.78,13.27,21,6a23.22,23.22,0,0,1,2.56-.31c12.13,0,24.26,0,36.63.8-3,1.56-6,3-9,4.68C37.69,18.84,28,30.56,18.11,42.07a4.73,4.73,0,0,0-.39,4q10.23,27.08,20.77,54a11.49,11.49,0,0,0,3.44,4.1C45.09,106.87,48.43,109.36,52.77,112.77Z" transform="translate(48.18 -5.73)"/></svg>