<svg id="图层_1" data-name="图层 1" xmlns="http://www.w3.org/2000/svg" viewBox="0 0 84.17 106.41"><defs><style>.cls-1{fill:none;}</style></defs><title>L</title><path class="cls-1" d="M15.37,6.15C11.48,9.4,8.22,11.89,5.27,14.7c-1.34,1.27-2.77,3.12-3,4.83C-.73,47.34-3.58,75.17-6.45,103a5.06,5.06,0,0,0,.24,1.38c21.8,1.68,32.78,1.72,43.43-22.85l10.75,31H-36.21c3.6-3,6.86-5.19,9.53-8A12.57,12.57,0,0,0-23.17,98c2.78-24.49,5.17-49,8-73.51.59-5.17.29-9.48-4.28-12.71-1.88-1.33-3.58-2.91-5.37-4.37L-24,6.15Z" transform="translate(36.21 -6.15)"/></svg>