<svg id="图层_1" data-name="图层 1" xmlns="http://www.w3.org/2000/svg" viewBox="0 0 124.04 106.92"><defs><style>.cls-1{fill:none;}</style></defs><title>M</title><path class="cls-1" d="M-26.06,112.77H-56.33c12.25-7.42,13.83-18.76,15-30.33,2-20,4.07-40.09,6.31-60.11.45-4-.25-7.14-3.55-9.59-2.23-1.66-4.36-3.48-6.53-5.23L-44,6.08H-1.75c-3.82,3.18-7.14,5.72-10.15,8.58-1.12,1.07-1.65,2.87-2.17,4.43-.23.69.22,1.62.41,2.43,4.93,20.81,9.87,41.63,15,63.37,1.2-2.26,2-3.67,2.7-5.12C13.64,60,23,40.13,32.87,20.52c2.47-4.9,2.29-8.16-2.09-11.28a24.25,24.25,0,0,1-2.86-3.06H67.71C65.53,8.1,64,9.86,62.12,11c-5.44,3.32-7.45,8-8,14.34C52,49.23,49.45,73.08,46.73,96.89c-.45,4,.38,6.62,3.35,9.07,2.25,1.85,4.18,4.09,6.86,6.76H16.38c3.79-3.17,7.13-5.76,10.21-8.64a8.13,8.13,0,0,0,2.63-4.43C31.64,78,33.88,56.28,36.15,34.59a11.34,11.34,0,0,0-.39-2.18c-1.13,2.15-2,3.66-2.74,5.22C21.74,61.37,10.4,85.08-.7,108.91c-1.64,3.52-3.52,5-7.89,3.54L-27.27,32.7l-1,0c-.72,6.73-1.46,13.45-2.15,20.18-1.36,13.25-2.84,26.49-4,39.76C-35,100.22-33.91,107.37-26.06,112.77Z" transform="translate(56.33 -6.08)"/></svg>