<svg id="图层_1" data-name="图层 1" xmlns="http://www.w3.org/2000/svg" viewBox="0 0 102.23 107.09"><defs><style>.cls-1{fill:none;}</style></defs><title>N</title><path class="cls-1" d="M35.13,113c-4.41,0-8.76.37-13-.2-1.5-.2-3.23-2.43-3.95-4.12C7.7,84.05-2.65,59.36-13,34.68a19.68,19.68,0,0,0-3.77-6.26c-.63,5.44-1.31,10.88-1.87,16.34-1.59,15.57-3.21,31.13-4.66,46.72-.74,8,.1,15.64,8.16,21.29H-45c16.2-10.5,13.83-27.13,15.81-42.06,1.91-14.35,2.52-28.88,4.66-43.19,1.14-7.67.19-13.65-6.34-18.21A10.32,10.32,0,0,1-32.6,7.5a8.93,8.93,0,0,1-.7-1.31H8.43c-3,2.55-5.75,4.53-8.05,6.91-1,1-1.95,3.23-1.5,4.31,9.89,24,20,47.88,30,71.78.11.25.46.4,1.08.9,1.68-15.77,3.34-31.27,5-46.78.5-4.8.85-9.62,1.34-14.42.88-8.64-.37-16.55-8.48-22.87H57.21C46.45,12.42,45.08,22.32,44,32.32q-4.14,39-8.2,78A21,21,0,0,1,35.13,113Z" transform="translate(45.02 -6.02)"/></svg>