<svg id="图层_1" data-name="图层 1" xmlns="http://www.w3.org/2000/svg" viewBox="0 0 93.31 112.06"><defs><style>.cls-1{fill:none;}</style></defs><title>O</title><path class="cls-1" d="M54.26,48.4c-.47,19.26-4.19,35.25-15,48.89A47.61,47.61,0,0,1-12.9,112.86C-24.51,109-32.34,101-35.62,89.45c-6.9-24.27-3.56-47.31,11.51-67.8C-12.37,5.68,9-.58,27.81,5.46c15,4.79,22.28,16.08,25.11,30.78C53.83,40.95,54,45.8,54.26,48.4Zm-74.82,21.3c1.71,8.07,2.54,16.45,5.31,24.13,5.1,14.12,20.75,17.71,32,7.73A37.89,37.89,0,0,0,25,91.07c8.05-15.24,10.84-31.72,9.34-48.76a62.55,62.55,0,0,0-4.54-18.74C24.46,10.94,10.28,7.46-.3,16.26A45.55,45.55,0,0,0-11,30.33C-17.3,42.52-19,55.9-20.55,69.71Z" transform="translate(39.05 -3.19)"/></svg>