<svg id="图层_1" data-name="图层 1" xmlns="http://www.w3.org/2000/svg" viewBox="0 0 95.7 106.53"><defs><style>.cls-1{fill:none;}</style></defs><title>P</title><path class="cls-1" d="M-31.82,7.59c.81-1.32.89-1.56,1-1.56,20.94.39,41.92.22,62.82,1.46,8.88.52,16.83,5.37,19.28,15,3,11.77,1.19,23-7.35,32.14C35.66,63.47,24.65,66.2,13.11,66.87,5.68,67.3-1.79,67-9.77,67c-1.14,11-2.39,22.25-3.34,33.48-.11,1.32,1.14,3,2.18,4.11,2.38,2.55,5,4.86,8.33,8h-40.5c3.46-2.86,6.63-5.27,9.52-8,1.36-1.27,2.92-3,3.13-4.72,1.37-11.05,2.39-22.14,3.7-35L-41.67,70c.53-6.23,4.44-10.88,12.09-12.56,3.2-.7,4-2.19,4.23-4.91C-24.3,42-23,31.37-22.21,20.75c.16-2.25-1.11-5-2.58-6.87C-26.8,11.36-29.62,9.5-31.82,7.59ZM-8.94,58.26c7.06,0,13.39.59,19.57-.12C24.71,56.52,32.87,47,33,32.84c.09-9.71-4.34-16.08-13.93-17.79-7.43-1.32-15.14-1.11-23.23-1.61Z" transform="translate(43.11 -6.03)"/></svg>