<svg id="图层_1" data-name="图层 1" xmlns="http://www.w3.org/2000/svg" viewBox="0 0 93.4 130.34"><defs><style>.cls-1{fill:none;}</style></defs><title>Q</title><path class="cls-1" d="M24.07,103.54c6,9.63,14.65,8.31,23.44,5.68-4.1,5.51-8.06,11-12.23,16.26a4.49,4.49,0,0,1-3.42,1.07c-8.65-.71-15.09-4.8-18.82-12.79-.91-1.94-1.69-3.94-2.57-6-5.19,0-10.38.52-15.43-.09C-21.76,105.64-33,96.31-37.22,80c-6-23.65-2.5-46.07,12.29-65.85C-12.76-2.14,10.74-8.14,29.57-.5c14.79,6,21.25,18.24,23.07,33.06,2.14,17.38-.37,34.25-8.87,49.81A58.06,58.06,0,0,1,35.27,94C32,97.49,28,100.25,24.07,103.54Zm-6.28-10c2.58-3.78,5.53-7.17,7.42-11.07,7-14.38,9.44-29.79,8.38-45.59A66.13,66.13,0,0,0,29.17,17C24,4,9.71.36-1.16,9.3a41.82,41.82,0,0,0-10.57,13.6c-7.87,16.09-10.15,33.38-7.86,51a50.34,50.34,0,0,0,5.91,17.27C-9.38,99-.77,101.75,7.83,98.43l-8.9-8.68C2.21,83,6.35,81.61,17.78,93.5Z" transform="translate(40.04 3.79)"/></svg>