<svg id="图层_1" data-name="图层 1" xmlns="http://www.w3.org/2000/svg" viewBox="0 0 96.15 114.09"><defs><style>.cls-1{fill:none;}</style></defs><title>R</title><path class="cls-1" d="M-2.49,112.77H-42.74c2.59-2.21,4.36-4.18,6.53-5.49,5.07-3.06,6.76-7.57,7.13-13.22.55-8.57,1.61-17.11,2.52-26.32L-40,69c1.5-3.48,2-7.49,4.33-9.22s6.13-.84,10-1.17c.84-7.6,1.7-15.46,2.56-23.32.05-.5,0-1,.1-1.49,1.3-7.29,2.8-14.65-9.38-15.77A71.33,71.33,0,0,1-5.05,5.84c13-2.94,26-3.52,39,0,9.4,2.58,17,7.58,18.82,17.81,2,10.9-.68,20.84-10,27.5-6,4.28-12.93,7.26-20,11.13,4.91,16.66,13.95,32,25.2,46l-23.89,9.2c-1.32-7.6-2.42-15.43-4.1-23.13-2-9.25-4.66-18.36-6.8-27.59-.63-2.73-2-2.94-4.29-2.6C4,64.93-1,65.3-5.91,66.32c-1.43.3-3.43,2.16-3.61,3.51C-10.84,79.89-11.86,90-12.7,100.11c-.11,1.34,1,3,2,4.16C-8.27,107-5.62,109.55-2.49,112.77ZM-8.2,58.34c10-.51,19.05-2.13,27.49-6.35,10.46-5.23,15.4-13.8,14.77-25.52-.43-8.09-5-13.86-13.14-14.3-6.5-.35-13.12,1-19.64,1.9-3.91.55-5.87,3-5.87,7.22,0,3.64-.72,7.28-1.08,10.93C-6.51,40.77-7.33,49.33-8.2,58.34Z" transform="translate(42.74 -3.41)"/></svg>