<svg id="图层_1" data-name="图层 1" xmlns="http://www.w3.org/2000/svg" viewBox="0 0 95.95 111.71"><defs><style>.cls-1{fill:none;}</style></defs><title>S</title><path class="cls-1" d="M53.87,8,37.42,34.16c-.34-1.65-.52-2.7-.77-3.73C32.71,14.17,18.23,6.75,2.75,13.14-3.41,15.68-7.3,20.11-8,27s1.94,12.25,8,15.36A159.21,159.21,0,0,0,16.08,49c4.81,1.84,9.83,3.18,14.56,5.2,9.44,4,17.24,9.78,18.4,21,1.33,12.82-2.14,24-13.12,31.53-12.52,8.6-26.53,10.07-41.13,6.79a81.38,81.38,0,0,1-10-3.2c-8.61-3.15-17.27-5.07-26.91-1.07l19-29.88c.74,3.34,1.27,6.5,2.16,9.55,2.62,9,8.35,15.09,17.64,17.22,9,2.07,17.91,2,26.15-2.84,12.69-7.5,12.61-25.5-.49-32.18C15.63,67.66,8.09,65.77.9,63.2-2.39,62-5.77,61.07-9,59.71c-9.46-4-16.37-10.21-17.08-21.31-.8-12.53,3.4-22.73,14.55-29.1,11.91-6.81,24.73-7.12,37.8-4,2.43.58,4.81,1.33,7.21,2C43.46,10.16,44.34,10.2,53.87,8Z" transform="translate(42.09 -3.39)"/></svg>