<svg id="图层_1" data-name="图层 1" xmlns="http://www.w3.org/2000/svg" viewBox="0 0 97.29 106.61"><defs><style>.cls-1{fill:none;}</style></defs><title>T</title><path class="cls-1" d="M54.76,6,41.4,30.77c-1.07-6.62-3.13-12.56-9.66-14.47-5.62-1.65-11.59-2.1-17.83-3.15-1.3,11.9-2.5,22.64-3.65,33.38C8.52,62.91,7,79.32,5,95.67c-.58,4.79.36,8.37,4.32,11.21,2,1.44,3.72,3.26,6.49,5.73H-25.41c3.84-3.17,7.16-5.6,10.08-8.43a9.78,9.78,0,0,0,3-5.33c3-27.3,5.74-54.63,8.54-81.95a23.52,23.52,0,0,0,0-2.41C-18.37,11.85-28,16.86-34.62,31L-42.53,6Z" transform="translate(42.53 -6.01)"/></svg>