<svg id="图层_1" data-name="图层 1" xmlns="http://www.w3.org/2000/svg" viewBox="0 0 95.95 109.13"><defs><style>.cls-1{fill:none;}</style></defs><title>U</title><path class="cls-1" d="M54.17,4.07c-1,1.1-1.31,1.59-1.73,1.81-9.9,5.27-12,14.16-12.59,24.51-.8,14.12-2.8,28.17-4.22,42.25-.53,5.22-2.11,10.55,2,15.31.59.69-.08,2.84-.65,4.1-4,8.85-11,14.65-20,17.63-13.3,4.38-26.82,4.8-40.26.47-8.92-2.87-15.47-8.4-18-17.76-.4-1.46-.65-3.91.15-4.58,4.86-4.14,4.39-9.91,5-15.24q3.11-27.3,5.67-54.66a7.33,7.33,0,0,0-1.8-5.17c-2.52-2.6-5.58-4.68-8.43-7l1.17-1.61H-.55c-3.37,2.92-6.48,5.21-9.06,8-1.66,1.79-3.4,4.19-3.67,6.49-2.36,20.18-4.39,40.4-6.51,60.6-.1,1-.12,2-.13,3-.17,12.5,4.51,19.67,14.4,22.06C6.42,107.18,18.74,102.73,22.64,92c3.42-9.37,4.74-19.62,6.11-29.6,1.9-13.85,2.69-27.85,4.55-41.71.62-4.58-.45-7.61-3.78-10.41-2-1.67-3.63-3.72-6-6.25Z" transform="translate(41.77 -4.07)"/></svg>