<svg id="图层_1" data-name="图层 1" xmlns="http://www.w3.org/2000/svg" viewBox="0 0 118.07 131.27"><defs><style>.cls-1{fill:none;}</style></defs><title>V</title><path class="cls-1" d="M7.51,124.85H-30.06c2.54-2.81,5.23-5.41,7.41-8.38,1.08-1.46,2.06-3.83,1.66-5.42Q-31.2,71.17-41.87,31.4a12,12,0,0,0-3-4.94c-2.5-2.57-5.32-4.83-8-7.22l1-1.22h39.21c-3.48,3.26-6.46,5.79-9.07,8.64-1.05,1.15-2.13,3.25-1.79,4.56,6.09,23.5,12.39,46.94,18.68,70.49.5-.3.89-.39,1-.62C6.32,79.09,17,57.25,26.58,35c3.9-9,5.56-19-.44-28.31l39-13.08C61.4-1.9,57.11,2.15,54.14,7c-8.32,13.6-16.67,27.23-24,41.39C19.91,68.36,10.71,88.88.75,109c-1.95,3.93-1.93,6.63,1.34,9.54C3.9,120.16,5.29,122.24,7.51,124.85Z" transform="translate(52.91 6.42)"/></svg>