<svg id="图层_1" data-name="图层 1" xmlns="http://www.w3.org/2000/svg" viewBox="0 0 148.75 130.51"><defs><style>.cls-1{fill:none;}</style></defs><title>W</title><path class="cls-1" d="M-4,52.13c-6.95,18.68-14,37.32-20.65,56.12-.78,2.21.63,5.74,2,8,1.77,2.91,4.58,5.19,7.47,8.31H-54.56c3.39-3.1,6.48-5.58,9.1-8.48a6.85,6.85,0,0,0,1.69-5Q-50.87,71.81-58.4,32.58c-.47-2.43-2.07-4.78-3.59-6.84-1.84-2.5-4.15-4.65-6.86-7.62h38.41a13.65,13.65,0,0,1-2,2.23c-7.72,5-8.83,11.51-6.73,20.38,4.16,17.56,7,35.43,10.59,54.36,1.11-2.56,1.83-4,2.38-5.51C-18.09,67.73-9.84,46-2,24c1.91-5.38,4.46-7.78,10.79-5.6L22.57,94c1.06-2.22,1.75-3.41,2.22-4.69,6.37-17.33,12.82-34.63,19-52C47.4,27.07,50,16.71,43.52,6.48L79.9-5.82c-4.49,6-9.56,12.45-14.28,19.15C53.86,30,47.81,49.33,40.76,68.17c-4.6,12.31-9,24.69-13.91,36.89-2.07,5.18-1.61,9.22,2.6,13,2.07,1.84,3.82,4,6.26,6.67H-2.75c3.23-3,6.15-5.31,8.62-8.06,1.15-1.28,2.24-3.5,2-5C4.35,91.75.61,72-3.06,52.18Z" transform="translate(68.85 5.82)"/></svg>