<svg id="图层_1" data-name="图层 1" xmlns="http://www.w3.org/2000/svg" viewBox="0 0 109.6 106.59"><defs><style>.cls-1{fill:none;}</style></defs><title>X</title><path class="cls-1" d="M-37,6H1.58l-8.74,9.16L11.12,47l24-30.15L26.84,6.22h33.9c-.06.23,0,.69-.22.77C46.92,13.4,38,24.73,29.33,36.43c-3.76,5.09-7.71,10-11.79,14.89-1.77,2.1-2,3.71-.53,6.14,8.22,14.09,16,28.43,24.48,42.38,3.06,5.06,7.52,9.28,10.39,12.73H12.72c2.9-3,5.53-5.48,7.78-8.25.84-1,1.55-3.22,1-4.17C15.85,89.83,9.92,79.64,3.75,68.9-4.77,79.58-13,89.77-21,100.13c-.64.82-.28,3.09.42,4.14,1.83,2.75,4.12,5.2,6.66,8.31H-48.86c.09-.28.11-.71.3-.8C-35,105.39-25.68,94.47-17,82.71c4.63-6.3,9.68-12.31,14.68-18.34,1.6-1.93,1.83-3.42.49-5.7C-9.63,45.47-16.91,32-25,19-28,14.16-32.8,10.46-37,6Z" transform="translate(48.86 -5.99)"/></svg>