<svg id="图层_1" data-name="图层 1" xmlns="http://www.w3.org/2000/svg" viewBox="0 0 119.72 130.54"><defs><style>.cls-1{fill:none;}</style></defs><title>Y</title><path class="cls-1" d="M-54.17,18h38.4L-25.2,27.9-3.56,69.63C-2.14,67.81-1,66.45,0,65c8.11-11,16.26-21.95,24.29-33a47.9,47.9,0,0,0,5.43-8.93c2.48-5.75,3.41-11.61-2-16.77L65.55-5.94c-23.78,23-40.37,51.26-60.46,76.75C.6,76.5-2.34,82.35-2.37,89.79a70.91,70.91,0,0,1-1.82,16.35c-1.53,6.29.6,10.51,5.42,14.08,1.45,1.07,2.71,2.42,4.86,4.38H-34.77c2.73-2.25,4.71-4.25,7-5.72,4.45-2.82,6.31-6.72,6.62-11.93.47-7.81,1.67-15.57,2.18-23.37a15.51,15.51,0,0,0-1.5-7.53c-4.71-9.55-9.68-19-14.68-28.38C-40.61,37.34-44.88,26.21-54.17,18Z" transform="translate(54.17 5.94)"/></svg>